<svg width="150" height="150" viewBox="0 0 150 150" fill="none" xmlns="http://www.w3.org/2000/svg">
    <path d="M0 0H150V150H0V0Z" fill="#E2E8F0" />
    <path d="M74.5 80.5556C89.2962 80.5556 119 88 119 102.778V104.556C108.209 117 92.3 125 74.5 125C56.7 125 40.7912 117 30 104.556V102.778C30 88 59.7037 80.5556 74.5 80.5556ZM74.5 69.4444C62.2625 69.4444 52.25 59.4444 52.25 47.2222C52.25 35 62.2625 25 74.5 25C86.7375 25 96.75 35 96.75 47.2222C96.75 59.4444 86.7375 69.4444 74.5 69.4444Z" fill="#A0AEC0" />
</svg>
